<mxfile host="65bd71144e">
    <diagram id="20kFIQ4sKsEcM44M0NhQ" name="Page-1">
        <mxGraphModel dx="1643" dy="1366" grid="1" gridSize="10" guides="1" tooltips="1" connect="1" arrows="1" fold="1" page="1" pageScale="1" pageWidth="850" pageHeight="1100" background="#F4F1DE" math="0" shadow="0">
            <root>
                <mxCell id="0"/>
                <mxCell id="1" parent="0"/>
                <mxCell id="2" value="" style="rounded=0;whiteSpace=wrap;html=1;sketch=0;fontColor=#393C56;fillColor=#FCFCFC;strokeColor=#4D4D4D;" vertex="1" parent="1">
                    <mxGeometry x="40" y="280" width="800" height="450" as="geometry"/>
                </mxCell>
                <mxCell id="72" style="edgeStyle=orthogonalEdgeStyle;curved=0;rounded=1;sketch=0;orthogonalLoop=1;jettySize=auto;html=1;fontFamily=Helvetica;fontSize=10;fontColor=#393C56;strokeWidth=3;fillColor=#F2CC8F;strokeColor=#FF8000;" edge="1" parent="1" source="13">
                    <mxGeometry relative="1" as="geometry">
                        <mxPoint x="950" y="550" as="targetPoint"/>
                        <Array as="points">
                            <mxPoint x="900" y="520"/>
                            <mxPoint x="900" y="550"/>
                            <mxPoint x="940" y="550"/>
                        </Array>
                    </mxGeometry>
                </mxCell>
                <mxCell id="13" value="" style="rounded=0;whiteSpace=wrap;html=1;sketch=0;fontSize=14;strokeColor=#4D4D4D;align=left;fillColor=#66B2FF;fontColor=#393C56;" vertex="1" parent="1">
                    <mxGeometry x="40" y="310" width="800" height="420" as="geometry"/>
                </mxCell>
                <mxCell id="23" value="" style="rounded=0;whiteSpace=wrap;html=1;sketch=0;fontSize=14;fontColor=#393C56;align=left;strokeColor=none;fillColor=#CCE5FF;" vertex="1" parent="1">
                    <mxGeometry x="320" y="390" width="260" height="280" as="geometry"/>
                </mxCell>
                <mxCell id="3" value="&lt;h1&gt;UI Design&lt;/h1&gt;&lt;p&gt;&lt;font style=&quot;font-size: 14px&quot;&gt;Gambaran sederhana tampilan UI aplikasi Travelokay. Digunakan sebagai pedoman dalam membuat code Java GUI.&lt;/font&gt;&lt;/p&gt;" style="text;html=1;strokeColor=none;fillColor=none;spacing=5;spacingTop=-20;whiteSpace=wrap;overflow=hidden;rounded=0;sketch=0;fontColor=#393C56;" vertex="1" parent="1">
                    <mxGeometry x="40" y="40" width="360" height="120" as="geometry"/>
                </mxCell>
                <mxCell id="4" value="Login Screen" style="text;html=1;strokeColor=none;fillColor=none;align=left;verticalAlign=middle;whiteSpace=wrap;rounded=0;sketch=0;fontColor=#393C56;fontSize=14;fontStyle=1" vertex="1" parent="1">
                    <mxGeometry x="40" y="260" width="100" height="20" as="geometry"/>
                </mxCell>
                <mxCell id="5" value="Resolusi layar" style="text;html=1;strokeColor=none;fillColor=none;align=left;verticalAlign=middle;whiteSpace=wrap;rounded=0;sketch=0;fontColor=#393C56;fontSize=14;fontStyle=1" vertex="1" parent="1">
                    <mxGeometry x="40" y="180" width="100" height="20" as="geometry"/>
                </mxCell>
                <mxCell id="6" value="16 : 9" style="text;html=1;strokeColor=none;fillColor=none;align=left;verticalAlign=middle;whiteSpace=wrap;rounded=0;sketch=0;fontColor=#393C56;fontSize=14;fontStyle=1" vertex="1" parent="1">
                    <mxGeometry x="40" y="200" width="100" height="20" as="geometry"/>
                </mxCell>
                <mxCell id="7" value="" style="rounded=0;whiteSpace=wrap;html=1;sketch=0;fontColor=#393C56;fillColor=#FCFCFC;strokeColor=#4D4D4D;" vertex="1" parent="1">
                    <mxGeometry x="40" y="280" width="800" height="30" as="geometry"/>
                </mxCell>
                <mxCell id="14" value="" style="rounded=0;whiteSpace=wrap;html=1;sketch=0;fontSize=14;fontColor=#393C56;align=left;fillColor=#FFFFFF;strokeColor=none;" vertex="1" parent="1">
                    <mxGeometry x="310" y="380" width="260" height="280" as="geometry"/>
                </mxCell>
                <mxCell id="15" value="&lt;b style=&quot;font-size: 20px&quot;&gt;Welcome&lt;/b&gt;" style="text;html=1;strokeColor=none;fillColor=none;align=center;verticalAlign=middle;whiteSpace=wrap;rounded=0;sketch=0;fontSize=20;fontColor=#393C56;fontFamily=Helvetica;" vertex="1" parent="1">
                    <mxGeometry x="390" y="400" width="100" height="20" as="geometry"/>
                </mxCell>
                <mxCell id="16" value="Username" style="text;html=1;strokeColor=none;fillColor=none;align=center;verticalAlign=middle;whiteSpace=wrap;rounded=0;sketch=0;fontFamily=Helvetica;fontSize=16;fontColor=#393C56;" vertex="1" parent="1">
                    <mxGeometry x="390" y="450" width="100" height="20" as="geometry"/>
                </mxCell>
                <mxCell id="17" value="&lt;font style=&quot;font-size: 14px&quot;&gt;ThomasSantosa&lt;/font&gt;" style="rounded=0;whiteSpace=wrap;html=1;sketch=0;fontFamily=Helvetica;fontSize=16;fontColor=#393C56;strokeColor=#4D4D4D;fillColor=#FFFFFF;align=center;" vertex="1" parent="1">
                    <mxGeometry x="360" y="480" width="160" height="25" as="geometry"/>
                </mxCell>
                <mxCell id="18" value="Password" style="text;html=1;strokeColor=none;fillColor=none;align=center;verticalAlign=middle;whiteSpace=wrap;rounded=0;sketch=0;fontFamily=Helvetica;fontSize=16;fontColor=#393C56;" vertex="1" parent="1">
                    <mxGeometry x="390" y="520" width="100" height="20" as="geometry"/>
                </mxCell>
                <mxCell id="19" value="&lt;font style=&quot;font-size: 14px&quot;&gt;****************&lt;/font&gt;" style="rounded=0;whiteSpace=wrap;html=1;sketch=0;fontFamily=Helvetica;fontSize=16;fontColor=#393C56;strokeColor=#4D4D4D;fillColor=#FFFFFF;align=center;" vertex="1" parent="1">
                    <mxGeometry x="360" y="550" width="160" height="25" as="geometry"/>
                </mxCell>
                <mxCell id="20" value="Log-In" style="rounded=0;whiteSpace=wrap;html=1;sketch=0;fontFamily=Helvetica;fontSize=16;fontColor=#393C56;align=center;fillColor=#66B2FF;strokeColor=none;" vertex="1" parent="1">
                    <mxGeometry x="450" y="600" width="70" height="25" as="geometry"/>
                </mxCell>
                <mxCell id="21" value="" style="rounded=0;whiteSpace=wrap;html=1;sketch=0;fontFamily=Helvetica;fontSize=16;fontColor=#393C56;align=left;fillColor=#66FF66;strokeColor=none;" vertex="1" parent="1">
                    <mxGeometry x="50" y="285" width="20" height="20" as="geometry"/>
                </mxCell>
                <mxCell id="22" value="Login Screen" style="text;html=1;strokeColor=none;fillColor=none;align=left;verticalAlign=middle;whiteSpace=wrap;rounded=0;sketch=0;fontFamily=Helvetica;fontSize=14;fontColor=#393C56;" vertex="1" parent="1">
                    <mxGeometry x="80" y="285" width="100" height="20" as="geometry"/>
                </mxCell>
                <mxCell id="24" value="Sign-In" style="rounded=0;whiteSpace=wrap;html=1;sketch=0;fontFamily=Helvetica;fontSize=16;fontColor=#393C56;align=center;fillColor=#66B2FF;strokeColor=none;" vertex="1" parent="1">
                    <mxGeometry x="360" y="600" width="70" height="25" as="geometry"/>
                </mxCell>
                <mxCell id="25" value="" style="rounded=0;whiteSpace=wrap;html=1;sketch=0;fontColor=#393C56;fillColor=#FCFCFC;strokeColor=#4D4D4D;" vertex="1" parent="1">
                    <mxGeometry x="960" y="277.5" width="800" height="450" as="geometry"/>
                </mxCell>
                <mxCell id="26" value="" style="rounded=0;whiteSpace=wrap;html=1;sketch=0;fontSize=14;fontColor=#393C56;strokeColor=#4D4D4D;align=left;fillColor=#1F1D36;" vertex="1" parent="1">
                    <mxGeometry x="960" y="307.5" width="800" height="420" as="geometry"/>
                </mxCell>
                <mxCell id="28" value="Main Menu" style="text;html=1;strokeColor=none;fillColor=none;align=left;verticalAlign=middle;whiteSpace=wrap;rounded=0;sketch=0;fontColor=#393C56;fontSize=14;fontStyle=1" vertex="1" parent="1">
                    <mxGeometry x="960" y="257.5" width="100" height="20" as="geometry"/>
                </mxCell>
                <mxCell id="29" value="" style="rounded=0;whiteSpace=wrap;html=1;sketch=0;fontColor=#393C56;fillColor=#FCFCFC;strokeColor=#4D4D4D;" vertex="1" parent="1">
                    <mxGeometry x="960" y="277.5" width="800" height="30" as="geometry"/>
                </mxCell>
                <mxCell id="37" value="" style="rounded=0;whiteSpace=wrap;html=1;sketch=0;fontFamily=Helvetica;fontSize=16;fontColor=#393C56;align=left;fillColor=#66FF66;strokeColor=none;" vertex="1" parent="1">
                    <mxGeometry x="970" y="282.5" width="20" height="20" as="geometry"/>
                </mxCell>
                <mxCell id="38" value="Login Screen" style="text;html=1;strokeColor=none;fillColor=none;align=left;verticalAlign=middle;whiteSpace=wrap;rounded=0;sketch=0;fontFamily=Helvetica;fontSize=14;fontColor=#393C56;" vertex="1" parent="1">
                    <mxGeometry x="1000" y="282.5" width="100" height="20" as="geometry"/>
                </mxCell>
                <mxCell id="40" value="" style="rounded=0;whiteSpace=wrap;html=1;sketch=0;fontFamily=Helvetica;fontSize=14;fontColor=#393C56;align=left;strokeColor=none;fillColor=#131221;" vertex="1" parent="1">
                    <mxGeometry x="960" y="307.5" width="120" height="420" as="geometry"/>
                </mxCell>
                <mxCell id="42" value="&lt;font color=&quot;#b3b3b3&quot; style=&quot;font-size: 12px&quot;&gt;&amp;nbsp; &amp;nbsp;Pesawat&lt;/font&gt;" style="rounded=0;whiteSpace=wrap;html=1;sketch=0;fontFamily=Helvetica;fontSize=12;fontColor=#393C56;align=left;strokeColor=none;fillColor=#003366;" vertex="1" parent="1">
                    <mxGeometry x="960" y="427.5" width="120" height="30" as="geometry"/>
                </mxCell>
                <mxCell id="44" value="&lt;font color=&quot;#b3b3b3&quot; style=&quot;font-size: 12px&quot;&gt;&amp;nbsp; &amp;nbsp;Kereta Api&lt;/font&gt;" style="rounded=0;whiteSpace=wrap;html=1;sketch=0;fontFamily=Helvetica;fontSize=12;fontColor=#393C56;align=left;strokeColor=none;fillColor=#131221;" vertex="1" parent="1">
                    <mxGeometry x="960" y="457.5" width="120" height="30" as="geometry"/>
                </mxCell>
                <mxCell id="46" value="&lt;font color=&quot;#b3b3b3&quot; style=&quot;font-size: 12px&quot;&gt;&amp;nbsp; &amp;nbsp;Bus&lt;/font&gt;" style="rounded=0;whiteSpace=wrap;html=1;sketch=0;fontFamily=Helvetica;fontSize=12;fontColor=#393C56;align=left;strokeColor=none;fillColor=#131221;" vertex="1" parent="1">
                    <mxGeometry x="960" y="487.5" width="120" height="30" as="geometry"/>
                </mxCell>
                <mxCell id="47" value="&lt;font color=&quot;#b3b3b3&quot; style=&quot;font-size: 12px&quot;&gt;&amp;nbsp; &amp;nbsp;Hotel&lt;/font&gt;" style="rounded=0;whiteSpace=wrap;html=1;sketch=0;fontFamily=Helvetica;fontSize=12;fontColor=#393C56;align=left;strokeColor=none;fillColor=#131221;" vertex="1" parent="1">
                    <mxGeometry x="960" y="517.5" width="120" height="30" as="geometry"/>
                </mxCell>
                <mxCell id="48" value="&lt;font color=&quot;#b3b3b3&quot; style=&quot;font-size: 12px&quot;&gt;&amp;nbsp; &amp;nbsp;Wisata&lt;/font&gt;" style="rounded=0;whiteSpace=wrap;html=1;sketch=0;fontFamily=Helvetica;fontSize=12;fontColor=#393C56;align=left;strokeColor=none;fillColor=#131221;" vertex="1" parent="1">
                    <mxGeometry x="960" y="547.5" width="120" height="30" as="geometry"/>
                </mxCell>
                <mxCell id="49" value="" style="rounded=0;whiteSpace=wrap;html=1;sketch=0;fontFamily=Helvetica;fontSize=13;align=left;strokeColor=none;fillColor=#131221;noLabel=1;fontColor=none;" vertex="1" parent="1">
                    <mxGeometry x="960" y="307.5" width="120" height="120" as="geometry"/>
                </mxCell>
                <mxCell id="50" value="" style="ellipse;whiteSpace=wrap;html=1;aspect=fixed;rounded=0;sketch=0;fontFamily=Helvetica;fontSize=13;fontColor=#393C56;strokeColor=#4D4D4D;fillColor=#003366;align=left;" vertex="1" parent="1">
                    <mxGeometry x="995" y="327.5" width="50" height="50" as="geometry"/>
                </mxCell>
                <mxCell id="52" value="ThomasSantosa" style="text;html=1;strokeColor=none;fillColor=none;align=center;verticalAlign=middle;whiteSpace=wrap;rounded=0;sketch=0;fontFamily=Helvetica;fontSize=13;fontColor=#CCCCCC;" vertex="1" parent="1">
                    <mxGeometry x="965" y="387.5" width="110" height="20" as="geometry"/>
                </mxCell>
                <mxCell id="65" value="" style="group" vertex="1" connectable="0" parent="1">
                    <mxGeometry x="1030" y="327.5" width="20" height="20" as="geometry"/>
                </mxCell>
                <mxCell id="61" value="" style="endArrow=none;html=1;fontFamily=Helvetica;fontSize=13;fontColor=none;strokeWidth=3;fillColor=#F2CC8F;strokeColor=#E6E6E6;" edge="1" parent="65">
                    <mxGeometry width="50" height="50" as="geometry">
                        <mxPoint x="10" y="20" as="sourcePoint"/>
                        <mxPoint x="10" as="targetPoint"/>
                    </mxGeometry>
                </mxCell>
                <mxCell id="62" value="" style="endArrow=none;html=1;fontFamily=Helvetica;fontSize=13;fontColor=none;strokeWidth=3;fillColor=#F2CC8F;strokeColor=#E6E6E6;" edge="1" parent="65">
                    <mxGeometry width="50" height="50" as="geometry">
                        <mxPoint y="10" as="sourcePoint"/>
                        <mxPoint x="20" y="10" as="targetPoint"/>
                    </mxGeometry>
                </mxCell>
                <mxCell id="66" value="&lt;font color=&quot;#b3b3b3&quot;&gt;&amp;nbsp; &amp;nbsp;Log-Out&lt;/font&gt;" style="rounded=0;whiteSpace=wrap;html=1;sketch=0;fontFamily=Helvetica;fontSize=12;fontColor=#393C56;align=left;strokeColor=none;fillColor=#990000;" vertex="1" parent="1">
                    <mxGeometry x="960" y="697.5" width="120" height="30" as="geometry"/>
                </mxCell>
                <mxCell id="67" value="" style="rounded=0;whiteSpace=wrap;html=1;sketch=0;fontFamily=Helvetica;fontSize=12;fontColor=#393C56;align=left;strokeColor=none;fillColor=#009999;" vertex="1" parent="1">
                    <mxGeometry x="970" y="677.5" width="10" height="10" as="geometry"/>
                </mxCell>
                <mxCell id="68" value="&lt;font style=&quot;font-size: 10px&quot; color=&quot;#cccccc&quot;&gt;Night Mode&lt;/font&gt;" style="text;html=1;strokeColor=none;fillColor=none;align=left;verticalAlign=middle;whiteSpace=wrap;rounded=0;sketch=0;fontFamily=Helvetica;fontSize=10;fontColor=none;" vertex="1" parent="1">
                    <mxGeometry x="990" y="672.5" width="90" height="20" as="geometry"/>
                </mxCell>
            </root>
        </mxGraphModel>
    </diagram>
</mxfile>